<svg width="32" height="32" viewBox="0 0 32 32" fill="none" xmlns="http://www.w3.org/2000/svg">
  <defs>
    <linearGradient id="logoGradient" x1="0%" y1="0%" x2="100%" y2="100%">
      <stop offset="0%" style="stop-color:#8B5CF6;stop-opacity:1" />
      <stop offset="50%" style="stop-color:#A855F7;stop-opacity:1" />
      <stop offset="100%" style="stop-color:#6366F1;stop-opacity:1" />
    </linearGradient>
  </defs>
  
  <!-- Brain/Mind symbol -->
  <path d="M16 4C10.5 4 6 8.5 6 14c0 2 0.5 3.8 1.4 5.4L16 28l8.6-8.6C25.5 17.8 26 16 26 14c0-5.5-4.5-10-10-10z" fill="url(#logoGradient)" opacity="0.9"/>
  
  <!-- Neural network nodes -->
  <circle cx="12" cy="12" r="1.5" fill="white" opacity="0.8"/>
  <circle cx="20" cy="12" r="1.5" fill="white" opacity="0.8"/>
  <circle cx="16" cy="16" r="1.5" fill="white" opacity="0.8"/>
  <circle cx="14" cy="9" r="1" fill="white" opacity="0.6"/>
  <circle cx="18" cy="9" r="1" fill="white" opacity="0.6"/>
  
  <!-- Neural connections -->
  <path d="M12 12 L16 16 L20 12" stroke="white" stroke-width="1" opacity="0.5" fill="none"/>
  <path d="M14 9 L12 12" stroke="white" stroke-width="0.8" opacity="0.4" fill="none"/>
  <path d="M18 9 L20 12" stroke="white" stroke-width="0.8" opacity="0.4" fill="none"/>
</svg>
